<svg xmlns="http://www.w3.org/2000/svg" viewBox="0 0 64 64" role="img" aria-label="MovieMatcher icon">
  <defs>
    <linearGradient id="bg" x1="0" y1="0" x2="1" y2="1">
      <stop offset="0%" stop-color="#1a0b3d" />
      <stop offset="55%" stop-color="#2a0f4f" />
      <stop offset="100%" stop-color="#0f172a" />
    </linearGradient>
    <linearGradient id="ticketFront" x1="0" y1="0" x2="1" y2="1">
      <stop offset="0%" stop-color="#fb7185" />
      <stop offset="100%" stop-color="#be123c" />
    </linearGradient>
    <linearGradient id="ticketBack" x1="0" y1="0" x2="1" y2="1">
      <stop offset="0%" stop-color="#9f1239" />
      <stop offset="100%" stop-color="#7f1d1d" />
    </linearGradient>
  </defs>
  <rect x="4" y="4" width="56" height="56" rx="12" fill="url(#bg)" />
  <g transform="translate(16 15) rotate(-8 12 9)">
    <rect x="0" y="0" width="28" height="18" rx="4" fill="url(#ticketBack)" stroke="#fecdd3" stroke-width="1" />
    <circle cx="0" cy="9" r="2.2" fill="#0f172a" />
    <circle cx="28" cy="9" r="2.2" fill="#0f172a" />
    <line x1="6" y1="6" x2="22" y2="6" stroke="#fecdd3" stroke-width="1.2" stroke-linecap="round" />
    <line x1="6" y1="11" x2="18" y2="11" stroke="#fecdd3" stroke-width="1.2" stroke-linecap="round" />
  </g>
  <g transform="translate(18 26) rotate(10 14 10)">
    <rect x="0" y="0" width="30" height="20" rx="4.5" fill="url(#ticketFront)" stroke="#ffe4e6" stroke-width="1.1" />
    <circle cx="0" cy="10" r="2.4" fill="#0f172a" />
    <circle cx="30" cy="10" r="2.4" fill="#0f172a" />
    <line x1="6" y1="7" x2="24" y2="7" stroke="#fff1f2" stroke-width="1.3" stroke-linecap="round" />
    <line x1="6" y1="13" x2="19" y2="13" stroke="#fff1f2" stroke-width="1.3" stroke-linecap="round" />
  </g>
</svg>
